<svg xmlns="http://www.w3.org/2000/svg" xmlns:xlink="http://www.w3.org/1999/xlink" width="500" zoomAndPan="magnify" viewBox="0 0 375 374.999991" height="500" preserveAspectRatio="xMidYMid meet" version="1.0"><defs><g/></defs><g fill="#000000" fill-opacity="1"><g transform="translate(-4.440474, 163.919469)"><g><path d="M 36.09375 -45.75 C 39.144531 -45.75 41.804688 -46.128906 44.078125 -46.890625 C 46.359375 -47.660156 48.234375 -48.71875 49.703125 -50.0625 C 51.171875 -51.40625 52.265625 -53.003906 52.984375 -54.859375 C 53.710938 -56.710938 54.078125 -58.742188 54.078125 -60.953125 C 54.078125 -65.378906 52.617188 -68.78125 49.703125 -71.15625 C 46.785156 -73.53125 42.328125 -74.71875 36.328125 -74.71875 L 25.953125 -74.71875 L 25.953125 -45.75 Z M 77.859375 0 L 63.1875 0 C 60.414062 0 58.40625 -1.085938 57.15625 -3.265625 L 38.8125 -31.203125 C 38.125 -32.242188 37.367188 -32.984375 36.546875 -33.421875 C 35.722656 -33.867188 34.503906 -34.09375 32.890625 -34.09375 L 25.953125 -34.09375 L 25.953125 0 L 9.71875 0 L 9.71875 -87.265625 L 36.328125 -87.265625 C 42.242188 -87.265625 47.320312 -86.648438 51.5625 -85.421875 C 55.8125 -84.203125 59.289062 -82.484375 62 -80.265625 C 64.71875 -78.054688 66.722656 -75.410156 68.015625 -72.328125 C 69.304688 -69.253906 69.953125 -65.863281 69.953125 -62.15625 C 69.953125 -59.21875 69.519531 -56.441406 68.65625 -53.828125 C 67.789062 -51.210938 66.539062 -48.835938 64.90625 -46.703125 C 63.28125 -44.578125 61.269531 -42.707031 58.875 -41.09375 C 56.476562 -39.488281 53.753906 -38.222656 50.703125 -37.296875 C 51.742188 -36.691406 52.707031 -35.976562 53.59375 -35.15625 C 54.476562 -34.332031 55.28125 -33.359375 56 -32.234375 Z M 77.859375 0 "/></g></g></g><g fill="#000000" fill-opacity="1"><g transform="translate(73.164608, 163.919469)"><g><path d="M 34.765625 -62.890625 C 39.347656 -62.890625 43.519531 -62.144531 47.28125 -60.65625 C 51.039062 -59.164062 54.257812 -57.050781 56.9375 -54.3125 C 59.613281 -51.582031 61.675781 -48.242188 63.125 -44.296875 C 64.570312 -40.359375 65.296875 -35.953125 65.296875 -31.078125 C 65.296875 -26.171875 64.570312 -21.742188 63.125 -17.796875 C 61.675781 -13.859375 59.613281 -10.5 56.9375 -7.71875 C 54.257812 -4.945312 51.039062 -2.816406 47.28125 -1.328125 C 43.519531 0.160156 39.347656 0.90625 34.765625 0.90625 C 30.140625 0.90625 25.929688 0.160156 22.140625 -1.328125 C 18.359375 -2.816406 15.128906 -4.945312 12.453125 -7.71875 C 9.785156 -10.5 7.71875 -13.859375 6.25 -17.796875 C 4.78125 -21.742188 4.046875 -26.171875 4.046875 -31.078125 C 4.046875 -35.953125 4.78125 -40.359375 6.25 -44.296875 C 7.71875 -48.242188 9.785156 -51.582031 12.453125 -54.3125 C 15.128906 -57.050781 18.359375 -59.164062 22.140625 -60.65625 C 25.929688 -62.144531 30.140625 -62.890625 34.765625 -62.890625 Z M 34.765625 -10.5625 C 39.910156 -10.5625 43.71875 -12.289062 46.1875 -15.75 C 48.664062 -19.207031 49.90625 -24.273438 49.90625 -30.953125 C 49.90625 -37.640625 48.664062 -42.734375 46.1875 -46.234375 C 43.71875 -49.734375 39.910156 -51.484375 34.765625 -51.484375 C 29.535156 -51.484375 25.660156 -49.722656 23.140625 -46.203125 C 20.628906 -42.679688 19.375 -37.597656 19.375 -30.953125 C 19.375 -24.316406 20.628906 -19.257812 23.140625 -15.78125 C 25.660156 -12.300781 29.535156 -10.5625 34.765625 -10.5625 Z M 34.765625 -10.5625 "/></g></g></g><g fill="#000000" fill-opacity="1"><g transform="translate(142.50228, 163.919469)"><g><path d="M 22.265625 -16.046875 C 23.953125 -13.992188 25.789062 -12.546875 27.78125 -11.703125 C 29.78125 -10.859375 31.882812 -10.4375 34.09375 -10.4375 C 36.382812 -10.4375 38.445312 -10.847656 40.28125 -11.671875 C 42.113281 -12.503906 43.671875 -13.796875 44.953125 -15.546875 C 46.242188 -17.296875 47.226562 -19.523438 47.90625 -22.234375 C 48.59375 -24.953125 48.9375 -28.203125 48.9375 -31.984375 C 48.9375 -38.785156 47.8125 -43.703125 45.5625 -46.734375 C 43.3125 -49.773438 40.070312 -51.296875 35.84375 -51.296875 C 32.988281 -51.296875 30.492188 -50.640625 28.359375 -49.328125 C 26.234375 -48.023438 24.203125 -46.1875 22.265625 -43.8125 Z M 22.265625 -54.3125 C 24.765625 -56.925781 27.53125 -59.007812 30.5625 -60.5625 C 33.601562 -62.113281 37.078125 -62.890625 40.984375 -62.890625 C 44.554688 -62.890625 47.78125 -62.179688 50.65625 -60.765625 C 53.539062 -59.359375 56 -57.335938 58.03125 -54.703125 C 60.0625 -52.066406 61.617188 -48.878906 62.703125 -45.140625 C 63.785156 -41.398438 64.328125 -37.195312 64.328125 -32.53125 C 64.328125 -27.5 63.703125 -22.929688 62.453125 -18.828125 C 61.210938 -14.722656 59.4375 -11.210938 57.125 -8.296875 C 54.8125 -5.378906 52.023438 -3.113281 48.765625 -1.5 C 45.503906 0.101562 41.882812 0.90625 37.90625 0.90625 C 35.96875 0.90625 34.210938 0.710938 32.640625 0.328125 C 31.078125 -0.046875 29.628906 -0.578125 28.296875 -1.265625 C 26.972656 -1.953125 25.757812 -2.785156 24.65625 -3.765625 C 23.550781 -4.753906 22.492188 -5.851562 21.484375 -7.0625 L 20.828125 -2.890625 C 20.578125 -1.847656 20.160156 -1.101562 19.578125 -0.65625 C 18.992188 -0.21875 18.203125 0 17.203125 0 L 7.359375 0 L 7.359375 -89.6875 L 22.265625 -89.6875 Z M 22.265625 -54.3125 "/></g></g></g><g fill="#000000" fill-opacity="1"><g transform="translate(210.995118, 163.919469)"><g><path d="M 34.765625 -62.890625 C 39.347656 -62.890625 43.519531 -62.144531 47.28125 -60.65625 C 51.039062 -59.164062 54.257812 -57.050781 56.9375 -54.3125 C 59.613281 -51.582031 61.675781 -48.242188 63.125 -44.296875 C 64.570312 -40.359375 65.296875 -35.953125 65.296875 -31.078125 C 65.296875 -26.171875 64.570312 -21.742188 63.125 -17.796875 C 61.675781 -13.859375 59.613281 -10.5 56.9375 -7.71875 C 54.257812 -4.945312 51.039062 -2.816406 47.28125 -1.328125 C 43.519531 0.160156 39.347656 0.90625 34.765625 0.90625 C 30.140625 0.90625 25.929688 0.160156 22.140625 -1.328125 C 18.359375 -2.816406 15.128906 -4.945312 12.453125 -7.71875 C 9.785156 -10.5 7.71875 -13.859375 6.25 -17.796875 C 4.78125 -21.742188 4.046875 -26.171875 4.046875 -31.078125 C 4.046875 -35.953125 4.78125 -40.359375 6.25 -44.296875 C 7.71875 -48.242188 9.785156 -51.582031 12.453125 -54.3125 C 15.128906 -57.050781 18.359375 -59.164062 22.140625 -60.65625 C 25.929688 -62.144531 30.140625 -62.890625 34.765625 -62.890625 Z M 34.765625 -10.5625 C 39.910156 -10.5625 43.71875 -12.289062 46.1875 -15.75 C 48.664062 -19.207031 49.90625 -24.273438 49.90625 -30.953125 C 49.90625 -37.640625 48.664062 -42.734375 46.1875 -46.234375 C 43.71875 -49.734375 39.910156 -51.484375 34.765625 -51.484375 C 29.535156 -51.484375 25.660156 -49.722656 23.140625 -46.203125 C 20.628906 -42.679688 19.375 -37.597656 19.375 -30.953125 C 19.375 -24.316406 20.628906 -19.257812 23.140625 -15.78125 C 25.660156 -12.300781 29.535156 -10.5625 34.765625 -10.5625 Z M 34.765625 -10.5625 "/></g></g></g><g fill="#000000" fill-opacity="1"><g transform="translate(280.332791, 163.919469)"><g><path d="M 28 0.96875 C 22.613281 0.96875 18.476562 -0.546875 15.59375 -3.578125 C 12.71875 -6.617188 11.28125 -10.816406 11.28125 -16.171875 L 11.28125 -50.75 L 4.953125 -50.75 C 4.140625 -50.75 3.453125 -51.007812 2.890625 -51.53125 C 2.328125 -52.0625 2.046875 -52.847656 2.046875 -53.890625 L 2.046875 -59.8125 L 12.015625 -61.4375 L 15.140625 -78.34375 C 15.347656 -79.144531 15.734375 -79.765625 16.296875 -80.203125 C 16.859375 -80.648438 17.582031 -80.875 18.46875 -80.875 L 26.1875 -80.875 L 26.1875 -61.375 L 42.734375 -61.375 L 42.734375 -50.75 L 26.1875 -50.75 L 26.1875 -17.203125 C 26.1875 -15.265625 26.660156 -13.753906 27.609375 -12.671875 C 28.554688 -11.585938 29.851562 -11.046875 31.5 -11.046875 C 32.425781 -11.046875 33.203125 -11.15625 33.828125 -11.375 C 34.453125 -11.59375 34.992188 -11.820312 35.453125 -12.0625 C 35.921875 -12.3125 36.332031 -12.546875 36.6875 -12.765625 C 37.050781 -12.984375 37.414062 -13.09375 37.78125 -13.09375 C 38.21875 -13.09375 38.578125 -12.984375 38.859375 -12.765625 C 39.140625 -12.546875 39.441406 -12.210938 39.765625 -11.765625 L 44.234375 -4.53125 C 42.066406 -2.71875 39.570312 -1.347656 36.75 -0.421875 C 33.9375 0.503906 31.019531 0.96875 28 0.96875 Z M 28 0.96875 "/></g></g></g><g fill="#000000" fill-opacity="1"><g transform="translate(325.230288, 163.919469)"><g><path d="M 45.140625 -49.84375 C 44.742188 -49.207031 44.320312 -48.753906 43.875 -48.484375 C 43.4375 -48.222656 42.875 -48.09375 42.1875 -48.09375 C 41.457031 -48.09375 40.679688 -48.296875 39.859375 -48.703125 C 39.035156 -49.109375 38.078125 -49.5625 36.984375 -50.0625 C 35.898438 -50.5625 34.664062 -51.007812 33.28125 -51.40625 C 31.894531 -51.8125 30.253906 -52.015625 28.359375 -52.015625 C 25.421875 -52.015625 23.117188 -51.390625 21.453125 -50.140625 C 19.785156 -48.898438 18.953125 -47.273438 18.953125 -45.265625 C 18.953125 -43.929688 19.382812 -42.8125 20.25 -41.90625 C 21.113281 -41.007812 22.257812 -40.21875 23.6875 -39.53125 C 25.113281 -38.84375 26.734375 -38.226562 28.546875 -37.6875 C 30.359375 -37.144531 32.195312 -36.550781 34.0625 -35.90625 C 35.9375 -35.257812 37.78125 -34.523438 39.59375 -33.703125 C 41.40625 -32.878906 43.023438 -31.832031 44.453125 -30.5625 C 45.878906 -29.300781 47.023438 -27.785156 47.890625 -26.015625 C 48.753906 -24.242188 49.1875 -22.109375 49.1875 -19.609375 C 49.1875 -16.628906 48.648438 -13.882812 47.578125 -11.375 C 46.515625 -8.863281 44.9375 -6.691406 42.84375 -4.859375 C 40.757812 -3.023438 38.175781 -1.59375 35.09375 -0.5625 C 32.019531 0.457031 28.46875 0.96875 24.4375 0.96875 C 22.3125 0.96875 20.226562 0.773438 18.1875 0.390625 C 16.15625 0.00390625 14.203125 -0.523438 12.328125 -1.203125 C 10.460938 -1.890625 8.734375 -2.695312 7.140625 -3.625 C 5.554688 -4.550781 4.160156 -5.554688 2.953125 -6.640625 L 6.390625 -12.3125 C 6.835938 -13 7.363281 -13.519531 7.96875 -13.875 C 8.570312 -14.238281 9.335938 -14.421875 10.265625 -14.421875 C 11.179688 -14.421875 12.050781 -14.160156 12.875 -13.640625 C 13.707031 -13.117188 14.664062 -12.554688 15.75 -11.953125 C 16.832031 -11.347656 18.109375 -10.78125 19.578125 -10.25 C 21.046875 -9.726562 22.910156 -9.46875 25.171875 -9.46875 C 26.941406 -9.46875 28.457031 -9.679688 29.71875 -10.109375 C 30.988281 -10.535156 32.035156 -11.085938 32.859375 -11.765625 C 33.679688 -12.453125 34.285156 -13.25 34.671875 -14.15625 C 35.054688 -15.0625 35.25 -15.992188 35.25 -16.953125 C 35.25 -18.398438 34.816406 -19.585938 33.953125 -20.515625 C 33.085938 -21.441406 31.9375 -22.242188 30.5 -22.921875 C 29.070312 -23.609375 27.441406 -24.222656 25.609375 -24.765625 C 23.785156 -25.316406 21.914062 -25.910156 20 -26.546875 C 18.09375 -27.191406 16.222656 -27.945312 14.390625 -28.8125 C 12.554688 -29.675781 10.925781 -30.769531 9.5 -32.09375 C 8.070312 -33.425781 6.925781 -35.054688 6.0625 -36.984375 C 5.195312 -38.921875 4.765625 -41.257812 4.765625 -44 C 4.765625 -46.53125 5.265625 -48.941406 6.265625 -51.234375 C 7.273438 -53.523438 8.753906 -55.523438 10.703125 -57.234375 C 12.660156 -58.953125 15.097656 -60.320312 18.015625 -61.34375 C 20.929688 -62.375 24.300781 -62.890625 28.125 -62.890625 C 32.382812 -62.890625 36.265625 -62.179688 39.765625 -60.765625 C 43.265625 -59.359375 46.179688 -57.507812 48.515625 -55.21875 Z M 45.140625 -49.84375 "/></g></g></g><g fill="#000000" fill-opacity="1"><g transform="translate(-4.440474, 303.38138)"><g><path d="M 69.640625 -20.578125 C 70.523438 -20.578125 71.3125 -20.234375 72 -19.546875 L 78.390625 -12.609375 C 74.847656 -8.222656 70.492188 -4.863281 65.328125 -2.53125 C 60.160156 -0.195312 53.957031 0.96875 46.71875 0.96875 C 40.238281 0.96875 34.410156 -0.132812 29.234375 -2.34375 C 24.066406 -4.5625 19.648438 -7.640625 15.984375 -11.578125 C 12.328125 -15.523438 9.519531 -20.234375 7.5625 -25.703125 C 5.613281 -31.179688 4.640625 -37.160156 4.640625 -43.640625 C 4.640625 -50.191406 5.6875 -56.191406 7.78125 -61.640625 C 9.875 -67.097656 12.820312 -71.796875 16.625 -75.734375 C 20.425781 -79.679688 24.960938 -82.75 30.234375 -84.9375 C 35.503906 -87.132812 41.335938 -88.234375 47.734375 -88.234375 C 54.097656 -88.234375 59.742188 -87.1875 64.671875 -85.09375 C 69.597656 -83 73.789062 -80.265625 77.25 -76.890625 L 71.8125 -69.34375 C 71.488281 -68.863281 71.078125 -68.441406 70.578125 -68.078125 C 70.078125 -67.710938 69.382812 -67.53125 68.5 -67.53125 C 67.894531 -67.53125 67.269531 -67.703125 66.625 -68.046875 C 65.976562 -68.390625 65.273438 -68.8125 64.515625 -69.3125 C 63.753906 -69.8125 62.867188 -70.363281 61.859375 -70.96875 C 60.859375 -71.570312 59.691406 -72.125 58.359375 -72.625 C 57.035156 -73.132812 55.5 -73.554688 53.75 -73.890625 C 52 -74.234375 49.972656 -74.40625 47.671875 -74.40625 C 43.773438 -74.40625 40.207031 -73.710938 36.96875 -72.328125 C 33.726562 -70.941406 30.941406 -68.929688 28.609375 -66.296875 C 26.273438 -63.660156 24.460938 -60.441406 23.171875 -56.640625 C 21.890625 -52.835938 21.25 -48.503906 21.25 -43.640625 C 21.25 -38.722656 21.941406 -34.351562 23.328125 -30.53125 C 24.710938 -26.707031 26.59375 -23.488281 28.96875 -20.875 C 31.34375 -18.257812 34.140625 -16.257812 37.359375 -14.875 C 40.578125 -13.488281 44.035156 -12.796875 47.734375 -12.796875 C 49.953125 -12.796875 51.953125 -12.914062 53.734375 -13.15625 C 55.523438 -13.394531 57.175781 -13.773438 58.6875 -14.296875 C 60.195312 -14.828125 61.625 -15.503906 62.96875 -16.328125 C 64.320312 -17.148438 65.660156 -18.164062 66.984375 -19.375 C 67.390625 -19.738281 67.8125 -20.03125 68.25 -20.25 C 68.695312 -20.46875 69.160156 -20.578125 69.640625 -20.578125 Z M 69.640625 -20.578125 "/></g></g></g><g fill="#000000" fill-opacity="1"><g transform="translate(75.397414, 303.38138)"><g><path d="M 34.765625 -62.890625 C 39.347656 -62.890625 43.519531 -62.144531 47.28125 -60.65625 C 51.039062 -59.164062 54.257812 -57.050781 56.9375 -54.3125 C 59.613281 -51.582031 61.675781 -48.242188 63.125 -44.296875 C 64.570312 -40.359375 65.296875 -35.953125 65.296875 -31.078125 C 65.296875 -26.171875 64.570312 -21.742188 63.125 -17.796875 C 61.675781 -13.859375 59.613281 -10.5 56.9375 -7.71875 C 54.257812 -4.945312 51.039062 -2.816406 47.28125 -1.328125 C 43.519531 0.160156 39.347656 0.90625 34.765625 0.90625 C 30.140625 0.90625 25.929688 0.160156 22.140625 -1.328125 C 18.359375 -2.816406 15.128906 -4.945312 12.453125 -7.71875 C 9.785156 -10.5 7.71875 -13.859375 6.25 -17.796875 C 4.78125 -21.742188 4.046875 -26.171875 4.046875 -31.078125 C 4.046875 -35.953125 4.78125 -40.359375 6.25 -44.296875 C 7.71875 -48.242188 9.785156 -51.582031 12.453125 -54.3125 C 15.128906 -57.050781 18.359375 -59.164062 22.140625 -60.65625 C 25.929688 -62.144531 30.140625 -62.890625 34.765625 -62.890625 Z M 34.765625 -10.5625 C 39.910156 -10.5625 43.71875 -12.289062 46.1875 -15.75 C 48.664062 -19.207031 49.90625 -24.273438 49.90625 -30.953125 C 49.90625 -37.640625 48.664062 -42.734375 46.1875 -46.234375 C 43.71875 -49.734375 39.910156 -51.484375 34.765625 -51.484375 C 29.535156 -51.484375 25.660156 -49.722656 23.140625 -46.203125 C 20.628906 -42.679688 19.375 -37.597656 19.375 -30.953125 C 19.375 -24.316406 20.628906 -19.257812 23.140625 -15.78125 C 25.660156 -12.300781 29.535156 -10.5625 34.765625 -10.5625 Z M 34.765625 -10.5625 "/></g></g></g></svg>